<svg width="214" height="70" fill="none" xmlns="http://www.w3.org/2000/svg">
<g filter="url(#filter0_d)" fill="#fff">
<g clip-path="url(#clip0)">
<path d="M26.78 40.18l5.46-5.73 6.2 5.73H49.1L32.17 23.6 15.4 40.18h11.4z"/>
<path d="M42.4 13.57l-8.05 8.19 5.32 5.46 2.73-2.73 14.94 14.87a23.97 23.97 0 01-46.38-8.4 23.96 23.96 0 0147.54-4.3l7.23 7.65a30.75 30.75 0 00-8.87-25.24A30.75 30.75 0 0034.96 0c-8.31 0-16.02 3.2-21.89 9.07A30.64 30.64 0 004 30.97c0 8.32 3.2 16.03 9.07 21.9a30.75 30.75 0 0021.9 9.07c8.25 0 16.03-3.2 21.9-9.08a30.27 30.27 0 007.63-12.61c.28-.82.48-1.71.69-2.53L58.9 31.1l-16.5-17.53z"/>
</g>
<path d="M91.49 19.9h4.55l-2.48 12.49h7.68l-.73 3.61H88.27l3.22-16.1zm14.04 0h4.55L106.86 36h-4.55l3.22-16.1zm11.63 3.52l-.71 3.54h7.1l-.7 3.52h-7.1l-1.1 5.52h-4.55l3.22-16.1h12.6l-.7 3.52h-8.06zm14.69 0l-.53 2.71h7.15l-.66 3.4h-7.18l-.57 2.95h8.44l-.74 3.52h-12.9l3.22-16.1h12.6l-.71 3.52h-8.12zm14.37.1h-4.94l.73-3.62h14.42l-.73 3.61h-4.92L148.27 36h-4.56l2.51-12.49zm17.16 12.8a9.5 9.5 0 01-4.25-.9 6.7 6.7 0 01-2.79-2.5 7.01 7.01 0 01-.96-3.68c0-1.84.42-3.5 1.26-4.97a9.07 9.07 0 013.57-3.45 10.8 10.8 0 015.22-1.24c1.62 0 3.03.3 4.23.9a6.52 6.52 0 012.78 2.5c.66 1.08 1 2.3 1 3.68 0 1.84-.44 3.5-1.3 4.97a8.89 8.89 0 01-3.56 3.45 10.68 10.68 0 01-5.2 1.24zm.4-3.77c1 0 1.9-.25 2.66-.76a5.04 5.04 0 001.77-2.02c.41-.86.62-1.8.62-2.83 0-1.1-.34-1.96-1.01-2.6a3.76 3.76 0 00-2.78-.99 4.73 4.73 0 00-4.44 2.8 6.28 6.28 0 00-.62 2.81c0 1.1.33 1.96.99 2.62a3.9 3.9 0 002.8.97zm18.2 3.77c-1.4 0-2.6-.23-3.61-.69a5.27 5.27 0 01-3.13-5.1c0-.5.06-1.06.19-1.7l1.79-8.93h4.55L180 28.76c-.09.45-.14.88-.14 1.26 0 1.69.9 2.53 2.67 2.53.97 0 1.73-.3 2.28-.87.57-.6.99-1.58 1.26-2.93l1.78-8.85h4.48l-1.82 9.13c-.98 4.86-3.82 7.3-8.53 7.3zm26.82-11.3a6.3 6.3 0 01-1.17 3.83 6.69 6.69 0 01-3.3 2.32l2.75 4.83h-4.77l-2.39-4.28h-2.3l-.85 4.28h-4.55l3.22-16.1h6.88c2.05 0 3.64.45 4.78 1.36 1.13.9 1.7 2.16 1.7 3.77zm-4.6.45c0-.66-.22-1.15-.67-1.48a3.03 3.03 0 00-1.86-.5h-2.4l-.96 4.71h2.72c1 0 1.8-.23 2.34-.71.56-.48.83-1.15.83-2.02zM91.3 51.18c-.55 0-1.06-.12-1.51-.37a2.78 2.78 0 01-1.43-2.48 2.72 2.72 0 011.43-2.47c.45-.25.96-.38 1.51-.38.56 0 1.05.13 1.5.37a2.8 2.8 0 011.44 2.48c0 .54-.13 1.03-.39 1.47-.25.43-.6.77-1.05 1.01-.45.25-.94.37-1.5.37zm0-.53c.44 0 .84-.1 1.2-.3.36-.2.64-.47.84-.83.2-.35.3-.75.3-1.19 0-.43-.1-.83-.3-1.18-.2-.36-.48-.64-.84-.83-.36-.2-.76-.3-1.2-.3-.44 0-.84.1-1.2.3-.36.2-.65.47-.86.83-.2.35-.3.75-.3 1.18 0 .44.1.84.3 1.2a2.27 2.27 0 002.06 1.12zm6.38-3.76c.4 0 .75.1 1.07.27.32.18.57.43.76.76.18.32.27.7.27 1.1 0 .43-.1.8-.27 1.13-.19.32-.44.58-.76.76-.31.17-.67.26-1.07.26-.34 0-.65-.07-.93-.2a1.8 1.8 0 01-.67-.63v2.34h-.57v-5.76h.55v.84c.17-.28.4-.5.67-.64a2 2 0 01.95-.23zm-.04 3.78c.3 0 .56-.07.8-.2.24-.14.43-.33.56-.59.14-.25.2-.53.2-.85 0-.32-.06-.6-.2-.85a1.44 1.44 0 00-.56-.58c-.24-.14-.5-.21-.8-.21-.3 0-.57.07-.8.2-.24.15-.43.34-.57.6-.13.24-.2.52-.2.84 0 .32.07.6.2.85.14.26.33.45.56.59.24.13.51.2.81.2zm6.33-3.24h-2.4v3.7H101v-4.2h2.97v.5zm2.27-.54c.55 0 .97.14 1.27.42.29.27.44.68.44 1.21v2.61h-.55v-.65a1.3 1.3 0 01-.57.5c-.24.13-.53.2-.88.2-.47 0-.84-.12-1.12-.34a1.08 1.08 0 01-.41-.9c0-.35.13-.64.38-.86.26-.21.68-.32 1.24-.32h1.34v-.26c0-.36-.1-.64-.3-.82-.2-.2-.5-.3-.9-.3a2.2 2.2 0 00-1.4.5l-.25-.42c.21-.18.47-.32.77-.42.3-.1.61-.15.94-.15zm-.2 3.83c.32 0 .6-.07.83-.21.23-.15.4-.36.5-.64v-.69h-1.31c-.72 0-1.08.25-1.08.75 0 .25.1.44.28.59.18.14.45.2.78.2zm3.42-3.8h.57v1.87h2.64v-1.87h.57v4.21h-.56v-1.85h-2.65v1.85h-.57v-4.2zm5.4 0h.56v3.35l2.81-3.35h.5v4.21h-.56V47.8l-2.8 3.34h-.51v-4.2zm7.47 2.02c.3.07.53.19.69.36.16.17.24.38.24.62 0 .25-.08.47-.25.66-.17.2-.4.34-.68.45a3.2 3.2 0 01-1.85.02c-.3-.09-.55-.22-.77-.39l.2-.42a2.59 2.59 0 001.45.46c.38 0 .7-.08.94-.22.25-.15.38-.35.38-.6 0-.23-.1-.4-.3-.52-.2-.13-.48-.2-.84-.2h-.72v-.41h.7c.3 0 .56-.06.75-.18.2-.12.29-.28.29-.49 0-.22-.11-.4-.33-.52-.21-.13-.5-.2-.84-.2-.45 0-.9.12-1.34.35l-.16-.44c.5-.26 1.02-.4 1.56-.4.32 0 .6.05.86.15.26.1.47.22.6.4.16.16.23.36.23.58 0 .22-.07.4-.22.57-.14.17-.34.3-.6.37zM126 46.9c.55 0 .97.14 1.26.42.3.27.44.68.44 1.21v2.61h-.54v-.65a1.3 1.3 0 01-.57.5c-.24.13-.54.2-.88.2-.47 0-.84-.12-1.12-.34a1.09 1.09 0 01-.41-.9c0-.35.12-.64.38-.86.26-.21.67-.32 1.24-.32h1.34v-.26c0-.36-.1-.64-.3-.82-.21-.2-.5-.3-.9-.3a2.2 2.2 0 00-1.4.5l-.25-.42c.21-.18.47-.32.77-.42.3-.1.61-.15.94-.15zm-.2 3.83c.32 0 .6-.07.82-.21.23-.15.4-.36.52-.64v-.69h-1.32c-.72 0-1.08.25-1.08.75 0 .25.09.44.28.59.18.14.44.2.78.2zm7.8-.08v1.55h-.54v-1.06h-3.84v-4.2h.56v3.7h2.57v-3.7h.57v3.7h.68zm1.09-3.72h.56v3.35l2.81-3.35h.5v4.21H138V47.8l-2.8 3.34h-.51v-4.2zm8.74 0v4.21h-.53v-1.39h-1.47l-.98 1.4h-.62l1.05-1.48c-.32-.09-.57-.24-.75-.46-.18-.22-.26-.5-.26-.84 0-.46.16-.82.47-1.07a2.1 2.1 0 011.32-.37h1.77zm-2.99 1.46c0 .62.4.94 1.2.94h1.27v-1.9h-1.24c-.82 0-1.23.33-1.23.96zm10.47-1.46v4.21h-.56v-3.7h-2.64v3.7h-.57v-4.2h3.77zm3.35 4.25a2.05 2.05 0 01-1.86-1.04c-.19-.32-.28-.7-.28-1.1 0-.41.1-.78.28-1.1.19-.33.44-.58.77-.77.32-.18.69-.27 1.1-.27.4 0 .77.1 1.1.27.32.19.57.44.75.76.19.33.28.7.28 1.1 0 .42-.1.79-.28 1.11-.18.33-.43.58-.76.77-.32.18-.69.27-1.1.27zm0-.5c.3 0 .57-.07.8-.2.25-.14.43-.33.56-.59.14-.25.2-.53.2-.85 0-.32-.06-.6-.2-.86a1.39 1.39 0 00-.56-.57c-.23-.14-.5-.21-.8-.21-.3 0-.56.07-.8.2-.24.14-.42.33-.56.58-.14.25-.2.54-.2.86 0 .32.06.6.2.85.14.26.32.45.56.59.24.13.5.2.8.2zm5.84.46l-1.34-1.76-1.34 1.76h-.64l1.66-2.16-1.58-2.05h.64l1.26 1.65 1.27-1.65h.62l-1.58 2.05 1.68 2.16h-.65zm3.16.04a2.05 2.05 0 01-1.86-1.04c-.19-.32-.28-.7-.28-1.1 0-.41.1-.78.28-1.1.19-.33.44-.58.77-.77.32-.18.69-.27 1.1-.27.4 0 .77.1 1.1.27.32.19.57.44.75.76.19.33.28.7.28 1.1 0 .42-.1.79-.28 1.11-.18.33-.43.58-.76.77-.32.18-.69.27-1.1.27zm0-.5c.3 0 .57-.07.8-.2.25-.14.43-.33.56-.59.14-.25.2-.53.2-.85 0-.32-.06-.6-.2-.86a1.39 1.39 0 00-.56-.57c-.23-.14-.5-.21-.8-.21-.3 0-.56.07-.8.2-.24.14-.42.33-.56.58-.14.25-.2.54-.2.86 0 .32.06.6.2.85.14.26.32.45.56.59.24.13.5.2.8.2zm7.44-.03v1.5h-.54v-1h-3.77v1h-.53v-1.5h.23c.29-.02.48-.23.58-.63.1-.4.17-.96.2-1.68l.06-1.4h3.1v3.7h.66zm-3.3-2.28c-.03.6-.08 1.1-.15 1.48-.08.39-.21.65-.4.8h2.62v-3.21h-2.02l-.05.93zm6.14 2.81a2.05 2.05 0 01-1.86-1.04c-.2-.32-.29-.7-.29-1.1 0-.41.1-.78.28-1.1.2-.33.45-.58.77-.77.33-.18.7-.27 1.1-.27.4 0 .77.1 1.1.27.32.19.57.44.75.76.2.33.28.7.28 1.1 0 .42-.09.79-.28 1.11-.18.33-.43.58-.76.77-.32.18-.69.27-1.1.27zm0-.5c.3 0 .56-.07.8-.2.24-.14.42-.33.56-.59.13-.25.2-.53.2-.85 0-.32-.07-.6-.2-.86a1.54 1.54 0 00-1.36-.78c-.3 0-.57.07-.81.2-.23.14-.42.33-.56.58-.13.25-.2.54-.2.86 0 .32.07.6.2.85.14.26.33.45.56.59.24.13.51.2.8.2zm6.03-1.71c.57.13.85.47.85 1.03 0 .37-.13.65-.4.85-.28.2-.68.3-1.22.3h-1.91v-4.22h1.85c.48 0 .86.1 1.13.28.27.2.41.46.41.8 0 .23-.06.43-.2.6-.11.16-.29.28-.51.36zm-2.13-.16h1.26c.33 0 .58-.06.75-.19.17-.12.26-.3.26-.53a.6.6 0 00-.26-.53 1.3 1.3 0 00-.75-.18h-1.26v1.43zm1.34 1.88c.36 0 .63-.05.81-.17.18-.12.27-.3.27-.55 0-.25-.08-.44-.24-.56-.17-.12-.43-.18-.79-.18h-1.39v1.46h1.34zm7.75-1.72c.57.13.85.47.85 1.03 0 .37-.13.65-.4.85-.27.2-.68.3-1.22.3h-1.91v-4.22h1.86c.47 0 .85.1 1.12.28.27.2.41.46.41.8 0 .23-.06.43-.2.6-.11.16-.29.28-.51.36zm-2.13-.16h1.26c.33 0 .58-.06.75-.19.18-.12.26-.3.26-.53a.6.6 0 00-.26-.53 1.3 1.3 0 00-.75-.18h-1.26v1.43zm1.34 1.88c.36 0 .63-.05.81-.17.19-.12.27-.3.27-.55 0-.25-.08-.44-.24-.56-.17-.12-.43-.18-.79-.18h-1.39v1.46h1.34zm8.05-3.25h-2.41v3.7h-.57v-4.2h2.98v.5zm2.36 3.74a2.03 2.03 0 01-1.86-1.04c-.2-.32-.29-.7-.29-1.1 0-.41.1-.78.28-1.1.19-.33.45-.58.77-.77a2.2 2.2 0 011.1-.27c.4 0 .77.1 1.1.27.32.19.57.44.75.76.19.33.28.7.28 1.1 0 .42-.09.79-.28 1.11a2 2 0 01-.76.77c-.32.18-.69.27-1.1.27zm0-.5c.3 0 .56-.07.8-.2.24-.14.42-.33.56-.59.13-.25.2-.53.2-.85 0-.32-.07-.6-.2-.86a1.4 1.4 0 00-.56-.57c-.24-.14-.5-.21-.8-.21-.3 0-.57.07-.81.2-.24.14-.42.33-.56.58-.13.25-.2.54-.2.86 0 .32.07.6.2.85.14.26.32.45.56.59.24.13.5.2.8.2zm5.52-3.78c.39 0 .75.1 1.07.27.32.18.57.43.75.76.18.32.27.7.27 1.1 0 .43-.09.8-.27 1.13-.18.32-.43.58-.75.76-.32.17-.67.26-1.07.26-.35 0-.66-.07-.93-.2a1.8 1.8 0 01-.67-.63v2.34h-.57v-5.76h.54v.84c.17-.28.4-.5.67-.64a2 2 0 01.96-.23zm-.04 3.78c.29 0 .56-.07.8-.2.24-.14.42-.33.56-.59.13-.25.2-.53.2-.85 0-.32-.07-.6-.2-.85a1.44 1.44 0 00-.56-.58c-.24-.14-.51-.21-.8-.21-.3 0-.57.07-.81.2a1.5 1.5 0 00-.56.6c-.14.24-.2.52-.2.84 0 .32.06.6.2.85.14.26.32.45.56.59.24.13.5.2.8.2zm5.12-2.26c.53 0 .93.13 1.2.35.29.23.42.56.42 1 0 .44-.15.79-.44 1.03-.3.24-.73.36-1.28.35h-1.67v-4.22h.57v1.48l1.2.01zm2.33-1.49h.57v4.21h-.57v-4.2zm-2.47 3.79c.4 0 .69-.07.88-.23.2-.17.3-.4.3-.72 0-.31-.1-.54-.29-.7a1.5 1.5 0 00-.89-.22l-1.06-.02v1.87l1.06.02z"/></g><defs><clipPath id="clip0"><path fill="#fff" transform="translate(4)" d="M0 0h61.87v61.87H0z"/>
</clipPath>
<filter id="filter0_d" x="0" y="0" width="213.65" height="69.87" filterUnits="userSpaceOnUse" color-interpolation-filters="sRGB">
<feFlood flood-opacity="0" result="BackgroundImageFix"/>
<feColorMatrix in="SourceAlpha" values="0 0 0 0 0 0 0 0 0 0 0 0 0 0 0 0 0 0 127 0"/>
<feOffset dy="4"/><feGaussianBlur stdDeviation="2"/>
<feColorMatrix values="0 0 0 0 0 0 0 0 0 0 0 0 0 0 0 0 0 0 0.25 0"/>
<feBlend in2="BackgroundImageFix" result="effect1_dropShadow"/>
<feBlend in="SourceGraphic" in2="effect1_dropShadow" result="shape"/>
</filter></defs></svg>
