<svg width="214" height="70" viewBox="0 0 214 70" fill="none" xmlns="http://www.w3.org/2000/svg">
<g filter="url(#filter0_d)">
<g clip-path="url(#clip0)">
<path d="M26.7825 40.1768L32.2395 34.447L38.4468 40.1768H49.0878L32.1713 23.6013L15.3911 40.1768H26.7825Z" fill="white"/>
<path d="M42.4033 13.5742L34.3543 21.7596L39.6749 27.2166L42.4033 24.4881L57.3418 39.3583C53.9312 48.4305 45.2 54.9106 34.9 54.9106C21.6669 54.9106 10.9576 44.2014 10.9576 30.9682C11.0258 17.7351 21.7351 7.02583 34.9682 7.02583C46.7007 7.02583 56.5232 15.5523 58.5014 26.6709L65.7318 34.3106C65.8683 33.2192 65.9365 32.0596 65.9365 30.9682C65.9365 22.7146 62.7305 14.9384 56.8643 9.07219C50.998 3.20596 43.2219 0 34.9682 0C26.6464 0 18.9384 3.20596 13.0722 9.07219C7.20596 14.9384 4 22.6464 4 30.9682C4 39.2901 7.20596 46.998 13.0722 52.8643C18.9384 58.7305 26.7146 61.9365 34.9682 61.9365C43.2219 61.9365 50.998 58.7305 56.8643 52.8643C60.4795 49.249 63.0716 44.9517 64.504 40.2451C64.7769 39.4265 64.9815 38.5398 65.1861 37.7212L58.9106 31.1047L42.4033 13.5742Z" fill="white"/>
</g>
<path d="M91.4886 19.9H96.0426L93.5586 32.389H101.241L100.505 36H88.2686L91.4886 19.9ZM105.527 19.9H110.081L106.861 36H102.307L105.527 19.9ZM117.162 23.419L116.449 26.961H123.556L122.843 30.48H115.759L114.655 36H110.101L113.321 19.9H125.925L125.212 23.419H117.162ZM131.85 23.419L131.321 26.133H138.474L137.807 29.537H130.631L130.056 32.481H138.497L137.761 36H124.858L128.078 19.9H140.682L139.969 23.419H131.85ZM146.222 23.511H141.277L142.013 19.9H156.434L155.698 23.511H150.776L148.269 36H143.715L146.222 23.511ZM163.38 36.322C161.754 36.322 160.336 36.023 159.125 35.425C157.929 34.827 157.001 33.9913 156.342 32.918C155.698 31.8447 155.376 30.618 155.376 29.238C155.376 27.398 155.797 25.742 156.641 24.27C157.499 22.798 158.688 21.648 160.206 20.82C161.739 19.992 163.479 19.578 165.427 19.578C167.052 19.578 168.463 19.877 169.659 20.475C170.87 21.073 171.798 21.9087 172.442 22.982C173.101 24.0553 173.431 25.282 173.431 26.662C173.431 28.502 173.001 30.158 172.143 31.63C171.299 33.102 170.111 34.252 168.578 35.08C167.06 35.908 165.327 36.322 163.38 36.322ZM163.771 32.55C164.783 32.55 165.672 32.297 166.439 31.791C167.205 31.285 167.796 30.6103 168.21 29.767C168.624 28.9083 168.831 27.9653 168.831 26.938C168.831 25.8493 168.493 24.983 167.819 24.339C167.159 23.6797 166.232 23.35 165.036 23.35C164.024 23.35 163.134 23.603 162.368 24.109C161.601 24.615 161.011 25.2973 160.597 26.156C160.183 26.9993 159.976 27.9347 159.976 28.962C159.976 30.0507 160.305 30.9247 160.965 31.584C161.639 32.228 162.575 32.55 163.771 32.55ZM181.98 36.322C180.584 36.322 179.381 36.092 178.369 35.632C177.357 35.1567 176.582 34.482 176.046 33.608C175.509 32.734 175.241 31.7067 175.241 30.526C175.241 30.0353 175.302 29.468 175.425 28.824L177.219 19.9H181.773L180.002 28.755C179.91 29.215 179.864 29.6367 179.864 30.02C179.864 31.7067 180.753 32.55 182.532 32.55C183.498 32.55 184.257 32.2587 184.809 31.676C185.376 31.078 185.798 30.1043 186.074 28.755L187.845 19.9H192.33L190.513 29.031C189.531 33.8917 186.687 36.322 181.98 36.322ZM208.801 25.029C208.801 26.501 208.41 27.7737 207.628 28.847C206.846 29.905 205.75 30.6793 204.339 31.17L207.076 36H202.315L199.923 31.722H197.623L196.772 36H192.218L195.438 19.9H202.315C204.37 19.9 205.964 20.3523 207.099 21.257C208.234 22.1617 208.801 23.419 208.801 25.029ZM204.201 25.466C204.201 24.8067 203.979 24.316 203.534 23.994C203.089 23.6567 202.468 23.488 201.671 23.488H199.279L198.313 28.203H201.027C202.039 28.203 202.821 27.9653 203.373 27.49C203.925 27.0147 204.201 26.34 204.201 25.466Z" fill="white"/>
<path d="M91.3006 51.1806C90.746 51.1806 90.242 51.0579 89.7886 50.8126C89.3406 50.5619 88.9886 50.2206 88.7326 49.7886C88.482 49.3566 88.3566 48.8712 88.3566 48.3326C88.3566 47.7939 88.482 47.3086 88.7326 46.8766C88.9886 46.4446 89.3406 46.1059 89.7886 45.8606C90.242 45.6099 90.746 45.4846 91.3006 45.4846C91.8553 45.4846 92.354 45.6072 92.7966 45.8526C93.2446 46.0979 93.5966 46.4392 93.8526 46.8766C94.1086 47.3086 94.2366 47.7939 94.2366 48.3326C94.2366 48.8712 94.1086 49.3592 93.8526 49.7966C93.5966 50.2286 93.2446 50.5672 92.7966 50.8126C92.354 51.0579 91.8553 51.1806 91.3006 51.1806ZM91.3006 50.6526C91.7433 50.6526 92.1433 50.5539 92.5006 50.3566C92.858 50.1539 93.138 49.8766 93.3406 49.5246C93.5433 49.1672 93.6446 48.7699 93.6446 48.3326C93.6446 47.8952 93.5433 47.5006 93.3406 47.1486C93.138 46.7912 92.858 46.5139 92.5006 46.3166C92.1433 46.1139 91.7433 46.0126 91.3006 46.0126C90.858 46.0126 90.4553 46.1139 90.0926 46.3166C89.7353 46.5139 89.4526 46.7912 89.2446 47.1486C89.042 47.5006 88.9406 47.8952 88.9406 48.3326C88.9406 48.7699 89.042 49.1672 89.2446 49.5246C89.4526 49.8766 89.7353 50.1539 90.0926 50.3566C90.4553 50.5539 90.858 50.6526 91.3006 50.6526ZM97.6813 46.8926C98.076 46.8926 98.4333 46.9832 98.7533 47.1646C99.0733 47.3406 99.324 47.5912 99.5053 47.9166C99.6867 48.2419 99.7773 48.6126 99.7773 49.0286C99.7773 49.4499 99.6867 49.8232 99.5053 50.1486C99.324 50.4739 99.0733 50.7272 98.7533 50.9086C98.4387 51.0846 98.0813 51.1726 97.6813 51.1726C97.34 51.1726 97.0307 51.1032 96.7533 50.9646C96.4813 50.8206 96.2573 50.6126 96.0813 50.3406V52.6846H95.5133V46.9246H96.0573V47.7566C96.228 47.4792 96.452 47.2659 96.7293 47.1166C97.012 46.9672 97.3293 46.8926 97.6813 46.8926ZM97.6413 50.6686C97.9347 50.6686 98.2013 50.6019 98.4413 50.4686C98.6813 50.3299 98.868 50.1352 99.0013 49.8846C99.14 49.6339 99.2093 49.3486 99.2093 49.0286C99.2093 48.7086 99.14 48.4259 99.0013 48.1806C98.868 47.9299 98.6813 47.7352 98.4413 47.5966C98.2013 47.4579 97.9347 47.3886 97.6413 47.3886C97.3427 47.3886 97.0733 47.4579 96.8333 47.5966C96.5987 47.7352 96.412 47.9299 96.2733 48.1806C96.14 48.4259 96.0733 48.7086 96.0733 49.0286C96.0733 49.3486 96.14 49.6339 96.2733 49.8846C96.412 50.1352 96.5987 50.3299 96.8333 50.4686C97.0733 50.6019 97.3427 50.6686 97.6413 50.6686ZM103.974 47.4286H101.566V51.1326H100.998V46.9246H103.974V47.4286ZM106.243 46.8926C106.792 46.8926 107.213 47.0312 107.507 47.3086C107.8 47.5806 107.947 47.9859 107.947 48.5246V51.1326H107.403V50.4766C107.275 50.6952 107.085 50.8659 106.835 50.9886C106.589 51.1112 106.296 51.1726 105.955 51.1726C105.485 51.1726 105.112 51.0606 104.835 50.8366C104.557 50.6126 104.419 50.3166 104.419 49.9486C104.419 49.5912 104.547 49.3032 104.803 49.0846C105.064 48.8659 105.477 48.7566 106.043 48.7566H107.379V48.5006C107.379 48.1379 107.277 47.8632 107.075 47.6766C106.872 47.4846 106.576 47.3886 106.187 47.3886C105.92 47.3886 105.664 47.4339 105.419 47.5246C105.173 47.6099 104.963 47.7299 104.787 47.8846L104.531 47.4606C104.744 47.2792 105 47.1406 105.299 47.0446C105.597 46.9432 105.912 46.8926 106.243 46.8926ZM106.043 50.7246C106.363 50.7246 106.637 50.6526 106.867 50.5086C107.096 50.3592 107.267 50.1459 107.379 49.8686V49.1806H106.059C105.339 49.1806 104.979 49.4312 104.979 49.9326C104.979 50.1779 105.072 50.3726 105.259 50.5166C105.445 50.6552 105.707 50.7246 106.043 50.7246ZM109.459 46.9246H110.027V48.7886H112.675V46.9246H113.243V51.1326H112.675V49.2766H110.027V51.1326H109.459V46.9246ZM114.857 46.9246H115.425V50.2686L118.233 46.9246H118.737V51.1326H118.169V47.7886L115.369 51.1326H114.857V46.9246ZM122.327 48.9406C122.626 49.0099 122.855 49.1299 123.015 49.3006C123.18 49.4712 123.263 49.6792 123.263 49.9246C123.263 50.1699 123.178 50.3886 123.007 50.5806C122.842 50.7726 122.615 50.9219 122.327 51.0286C122.039 51.1299 121.722 51.1806 121.375 51.1806C121.071 51.1806 120.772 51.1379 120.479 51.0526C120.186 50.9619 119.93 50.8312 119.711 50.6606L119.903 50.2366C120.095 50.3806 120.319 50.4926 120.575 50.5726C120.831 50.6526 121.09 50.6926 121.351 50.6926C121.74 50.6926 122.058 50.6206 122.303 50.4766C122.554 50.3272 122.679 50.1272 122.679 49.8766C122.679 49.6526 122.578 49.4792 122.375 49.3566C122.172 49.2286 121.895 49.1646 121.543 49.1646H120.823V48.7486H121.511C121.826 48.7486 122.079 48.6899 122.271 48.5726C122.463 48.4499 122.559 48.2872 122.559 48.0846C122.559 47.8606 122.45 47.6846 122.231 47.5566C122.018 47.4286 121.738 47.3646 121.391 47.3646C120.938 47.3646 120.49 47.4792 120.047 47.7086L119.887 47.2686C120.388 47.0072 120.908 46.8766 121.447 46.8766C121.767 46.8766 122.055 46.9246 122.311 47.0206C122.572 47.1112 122.775 47.2419 122.919 47.4126C123.068 47.5832 123.143 47.7806 123.143 48.0046C123.143 48.2179 123.068 48.4072 122.919 48.5726C122.775 48.7379 122.578 48.8606 122.327 48.9406ZM126 46.8926C126.55 46.8926 126.971 47.0312 127.264 47.3086C127.558 47.5806 127.704 47.9859 127.704 48.5246V51.1326H127.16V50.4766C127.032 50.6952 126.843 50.8659 126.592 50.9886C126.347 51.1112 126.054 51.1726 125.712 51.1726C125.243 51.1726 124.87 51.0606 124.592 50.8366C124.315 50.6126 124.176 50.3166 124.176 49.9486C124.176 49.5912 124.304 49.3032 124.56 49.0846C124.822 48.8659 125.235 48.7566 125.8 48.7566H127.136V48.5006C127.136 48.1379 127.035 47.8632 126.832 47.6766C126.63 47.4846 126.334 47.3886 125.944 47.3886C125.678 47.3886 125.422 47.4339 125.176 47.5246C124.931 47.6099 124.72 47.7299 124.544 47.8846L124.288 47.4606C124.502 47.2792 124.758 47.1406 125.056 47.0446C125.355 46.9432 125.67 46.8926 126 46.8926ZM125.8 50.7246C126.12 50.7246 126.395 50.6526 126.624 50.5086C126.854 50.3592 127.024 50.1459 127.136 49.8686V49.1806H125.816C125.096 49.1806 124.736 49.4312 124.736 49.9326C124.736 50.1779 124.83 50.3726 125.016 50.5166C125.203 50.6552 125.464 50.7246 125.8 50.7246ZM133.6 50.6366V52.1886H133.064V51.1326H129.216V46.9246H129.784V50.6366H132.352V46.9246H132.92V50.6366H133.6ZM134.685 46.9246H135.253V50.2686L138.061 46.9246H138.565V51.1326H137.997V47.7886L135.197 51.1326H134.685V46.9246ZM143.425 46.9246V51.1326H142.905V49.7406H141.585H141.425L140.449 51.1326H139.833L140.881 49.6606C140.556 49.5699 140.305 49.4152 140.129 49.1966C139.953 48.9779 139.865 48.7006 139.865 48.3646C139.865 47.8952 140.025 47.5379 140.345 47.2926C140.665 47.0472 141.102 46.9246 141.657 46.9246H143.425ZM140.441 48.3806C140.441 49.0046 140.838 49.3166 141.633 49.3166H142.905V47.4286H141.673C140.852 47.4286 140.441 47.7459 140.441 48.3806ZM150.914 46.9246V51.1326H150.346V47.4286H147.706V51.1326H147.138V46.9246H150.914ZM154.265 51.1726C153.86 51.1726 153.494 51.0819 153.169 50.9006C152.844 50.7139 152.588 50.4579 152.401 50.1326C152.214 49.8072 152.121 49.4392 152.121 49.0286C152.121 48.6179 152.214 48.2499 152.401 47.9246C152.588 47.5992 152.844 47.3459 153.169 47.1646C153.494 46.9832 153.86 46.8926 154.265 46.8926C154.67 46.8926 155.036 46.9832 155.361 47.1646C155.686 47.3459 155.94 47.5992 156.121 47.9246C156.308 48.2499 156.401 48.6179 156.401 49.0286C156.401 49.4392 156.308 49.8072 156.121 50.1326C155.94 50.4579 155.686 50.7139 155.361 50.9006C155.036 51.0819 154.67 51.1726 154.265 51.1726ZM154.265 50.6686C154.564 50.6686 154.83 50.6019 155.065 50.4686C155.305 50.3299 155.492 50.1352 155.625 49.8846C155.758 49.6339 155.825 49.3486 155.825 49.0286C155.825 48.7086 155.758 48.4232 155.625 48.1726C155.492 47.9219 155.305 47.7299 155.065 47.5966C154.83 47.4579 154.564 47.3886 154.265 47.3886C153.966 47.3886 153.697 47.4579 153.457 47.5966C153.222 47.7299 153.036 47.9219 152.897 48.1726C152.764 48.4232 152.697 48.7086 152.697 49.0286C152.697 49.3486 152.764 49.6339 152.897 49.8846C153.036 50.1352 153.222 50.3299 153.457 50.4686C153.697 50.6019 153.966 50.6686 154.265 50.6686ZM160.098 51.1326L158.762 49.3726L157.418 51.1326H156.778L158.442 48.9726L156.858 46.9246H157.498L158.762 48.5726L160.026 46.9246H160.65L159.066 48.9726L160.746 51.1326H160.098ZM163.265 51.1726C162.86 51.1726 162.494 51.0819 162.169 50.9006C161.844 50.7139 161.588 50.4579 161.401 50.1326C161.214 49.8072 161.121 49.4392 161.121 49.0286C161.121 48.6179 161.214 48.2499 161.401 47.9246C161.588 47.5992 161.844 47.3459 162.169 47.1646C162.494 46.9832 162.86 46.8926 163.265 46.8926C163.67 46.8926 164.036 46.9832 164.361 47.1646C164.686 47.3459 164.94 47.5992 165.121 47.9246C165.308 48.2499 165.401 48.6179 165.401 49.0286C165.401 49.4392 165.308 49.8072 165.121 50.1326C164.94 50.4579 164.686 50.7139 164.361 50.9006C164.036 51.0819 163.67 51.1726 163.265 51.1726ZM163.265 50.6686C163.564 50.6686 163.83 50.6019 164.065 50.4686C164.305 50.3299 164.492 50.1352 164.625 49.8846C164.758 49.6339 164.825 49.3486 164.825 49.0286C164.825 48.7086 164.758 48.4232 164.625 48.1726C164.492 47.9219 164.305 47.7299 164.065 47.5966C163.83 47.4579 163.564 47.3886 163.265 47.3886C162.966 47.3886 162.697 47.4579 162.457 47.5966C162.222 47.7299 162.036 47.9219 161.897 48.1726C161.764 48.4232 161.697 48.7086 161.697 49.0286C161.697 49.3486 161.764 49.6339 161.897 49.8846C162.036 50.1352 162.222 50.3299 162.457 50.4686C162.697 50.6019 162.966 50.6686 163.265 50.6686ZM170.695 50.6366V52.1486H170.159V51.1326H166.391V52.1486H165.855V50.6366H166.095C166.378 50.6206 166.57 50.4126 166.671 50.0126C166.773 49.6126 166.842 49.0526 166.879 48.3326L166.935 46.9246H170.039V50.6366H170.695ZM167.399 48.3646C167.373 48.9619 167.322 49.4552 167.247 49.8446C167.173 50.2286 167.039 50.4926 166.847 50.6366H169.471V47.4286H167.447L167.399 48.3646ZM173.538 51.1726C173.133 51.1726 172.768 51.0819 172.442 50.9006C172.117 50.7139 171.861 50.4579 171.674 50.1326C171.488 49.8072 171.394 49.4392 171.394 49.0286C171.394 48.6179 171.488 48.2499 171.674 47.9246C171.861 47.5992 172.117 47.3459 172.442 47.1646C172.768 46.9832 173.133 46.8926 173.538 46.8926C173.944 46.8926 174.309 46.9832 174.634 47.1646C174.96 47.3459 175.213 47.5992 175.394 47.9246C175.581 48.2499 175.674 48.6179 175.674 49.0286C175.674 49.4392 175.581 49.8072 175.394 50.1326C175.213 50.4579 174.96 50.7139 174.634 50.9006C174.309 51.0819 173.944 51.1726 173.538 51.1726ZM173.538 50.6686C173.837 50.6686 174.104 50.6019 174.338 50.4686C174.578 50.3299 174.765 50.1352 174.898 49.8846C175.032 49.6339 175.098 49.3486 175.098 49.0286C175.098 48.7086 175.032 48.4232 174.898 48.1726C174.765 47.9219 174.578 47.7299 174.338 47.5966C174.104 47.4579 173.837 47.3886 173.538 47.3886C173.24 47.3886 172.97 47.4579 172.73 47.5966C172.496 47.7299 172.309 47.9219 172.17 48.1726C172.037 48.4232 171.97 48.7086 171.97 49.0286C171.97 49.3486 172.037 49.6339 172.17 49.8846C172.309 50.1352 172.496 50.3299 172.73 50.4686C172.97 50.6019 173.24 50.6686 173.538 50.6686ZM179.568 48.9566C180.139 49.0899 180.424 49.4339 180.424 49.9886C180.424 50.3566 180.288 50.6392 180.016 50.8366C179.744 51.0339 179.339 51.1326 178.8 51.1326H176.888V46.9246H178.744C179.224 46.9246 179.6 47.0179 179.872 47.2046C180.144 47.3912 180.28 47.6579 180.28 48.0046C180.28 48.2339 180.216 48.4312 180.088 48.5966C179.966 48.7566 179.792 48.8766 179.568 48.9566ZM177.44 48.7966H178.704C179.03 48.7966 179.278 48.7352 179.448 48.6126C179.624 48.4899 179.712 48.3112 179.712 48.0766C179.712 47.8419 179.624 47.6659 179.448 47.5486C179.278 47.4312 179.03 47.3726 178.704 47.3726H177.44V48.7966ZM178.776 50.6846C179.139 50.6846 179.411 50.6259 179.592 50.5086C179.774 50.3912 179.864 50.2072 179.864 49.9566C179.864 49.7059 179.782 49.5219 179.616 49.4046C179.451 49.2819 179.19 49.2206 178.832 49.2206H177.44V50.6846H178.776ZM186.529 48.9566C187.1 49.0899 187.385 49.4339 187.385 49.9886C187.385 50.3566 187.249 50.6392 186.977 50.8366C186.705 51.0339 186.3 51.1326 185.761 51.1326H183.849V46.9246H185.705C186.185 46.9246 186.561 47.0179 186.833 47.2046C187.105 47.3912 187.241 47.6579 187.241 48.0046C187.241 48.2339 187.177 48.4312 187.049 48.5966C186.927 48.7566 186.753 48.8766 186.529 48.9566ZM184.401 48.7966H185.665C185.991 48.7966 186.239 48.7352 186.409 48.6126C186.585 48.4899 186.673 48.3112 186.673 48.0766C186.673 47.8419 186.585 47.6659 186.409 47.5486C186.239 47.4312 185.991 47.3726 185.665 47.3726H184.401V48.7966ZM185.737 50.6846C186.1 50.6846 186.372 50.6259 186.553 50.5086C186.735 50.3912 186.825 50.2072 186.825 49.9566C186.825 49.7059 186.743 49.5219 186.577 49.4046C186.412 49.2819 186.151 49.2206 185.793 49.2206H184.401V50.6846H185.737ZM193.786 47.4286H191.378V51.1326H190.81V46.9246H193.786V47.4286ZM196.148 51.1726C195.742 51.1726 195.377 51.0819 195.052 50.9006C194.726 50.7139 194.47 50.4579 194.284 50.1326C194.097 49.8072 194.004 49.4392 194.004 49.0286C194.004 48.6179 194.097 48.2499 194.284 47.9246C194.47 47.5992 194.726 47.3459 195.052 47.1646C195.377 46.9832 195.742 46.8926 196.148 46.8926C196.553 46.8926 196.918 46.9832 197.244 47.1646C197.569 47.3459 197.822 47.5992 198.004 47.9246C198.19 48.2499 198.284 48.6179 198.284 49.0286C198.284 49.4392 198.19 49.8072 198.004 50.1326C197.822 50.4579 197.569 50.7139 197.244 50.9006C196.918 51.0819 196.553 51.1726 196.148 51.1726ZM196.148 50.6686C196.446 50.6686 196.713 50.6019 196.948 50.4686C197.188 50.3299 197.374 50.1352 197.508 49.8846C197.641 49.6339 197.708 49.3486 197.708 49.0286C197.708 48.7086 197.641 48.4232 197.508 48.1726C197.374 47.9219 197.188 47.7299 196.948 47.5966C196.713 47.4579 196.446 47.3886 196.148 47.3886C195.849 47.3886 195.58 47.4579 195.34 47.5966C195.105 47.7299 194.918 47.9219 194.78 48.1726C194.646 48.4232 194.58 48.7086 194.58 49.0286C194.58 49.3486 194.646 49.6339 194.78 49.8846C194.918 50.1352 195.105 50.3299 195.34 50.4686C195.58 50.6019 195.849 50.6686 196.148 50.6686ZM201.666 46.8926C202.06 46.8926 202.418 46.9832 202.738 47.1646C203.058 47.3406 203.308 47.5912 203.49 47.9166C203.671 48.2419 203.762 48.6126 203.762 49.0286C203.762 49.4499 203.671 49.8232 203.49 50.1486C203.308 50.4739 203.058 50.7272 202.738 50.9086C202.423 51.0846 202.066 51.1726 201.666 51.1726C201.324 51.1726 201.015 51.1032 200.738 50.9646C200.466 50.8206 200.242 50.6126 200.066 50.3406V52.6846H199.498V46.9246H200.042V47.7566C200.212 47.4792 200.436 47.2659 200.714 47.1166C200.996 46.9672 201.314 46.8926 201.666 46.8926ZM201.626 50.6686C201.919 50.6686 202.186 50.6019 202.426 50.4686C202.666 50.3299 202.852 50.1352 202.986 49.8846C203.124 49.6339 203.194 49.3486 203.194 49.0286C203.194 48.7086 203.124 48.4259 202.986 48.1806C202.852 47.9299 202.666 47.7352 202.426 47.5966C202.186 47.4579 201.919 47.3886 201.626 47.3886C201.327 47.3886 201.058 47.4579 200.818 47.5966C200.583 47.7352 200.396 47.9299 200.258 48.1806C200.124 48.4259 200.058 48.7086 200.058 49.0286C200.058 49.3486 200.124 49.6339 200.258 49.8846C200.396 50.1352 200.583 50.3299 200.818 50.4686C201.058 50.6019 201.327 50.6686 201.626 50.6686ZM206.75 48.4126C207.278 48.4179 207.681 48.5352 207.958 48.7646C208.235 48.9939 208.374 49.3246 208.374 49.7566C208.374 50.2046 208.225 50.5486 207.926 50.7886C207.627 51.0286 207.201 51.1459 206.646 51.1406L204.982 51.1326V46.9246H205.55V48.3966L206.75 48.4126ZM209.078 46.9246H209.646V51.1326H209.078V46.9246ZM206.614 50.7086C207.003 50.7139 207.297 50.6366 207.494 50.4766C207.697 50.3112 207.798 50.0712 207.798 49.7566C207.798 49.4472 207.699 49.2179 207.502 49.0686C207.305 48.9192 207.009 48.8419 206.614 48.8366L205.55 48.8206V50.6926L206.614 50.7086Z" fill="white"/>
</g>
<defs>
<filter id="filter0_d" x="0" y="0" width="213.646" height="69.8683" filterUnits="userSpaceOnUse" color-interpolation-filters="sRGB">
<feFlood flood-opacity="0" result="BackgroundImageFix"/>
<feColorMatrix in="SourceAlpha" type="matrix" values="0 0 0 0 0 0 0 0 0 0 0 0 0 0 0 0 0 0 127 0"/>
<feOffset dy="4"/>
<feGaussianBlur stdDeviation="2"/>
<feColorMatrix type="matrix" values="0 0 0 0 0 0 0 0 0 0 0 0 0 0 0 0 0 0 0.25 0"/>
<feBlend mode="normal" in2="BackgroundImageFix" result="effect1_dropShadow"/>
<feBlend mode="normal" in="SourceGraphic" in2="effect1_dropShadow" result="shape"/>
</filter>
<clipPath id="clip0">
<rect width="61.8683" height="61.8683" fill="white" transform="translate(4)"/>
</clipPath>
</defs>
</svg>
