<svg xmlns="http://www.w3.org/2000/svg">

<symbol id="insta" viewBox="0 0 18 18" xmlns="http://www.w3.org/2000/svg">
<path d="M13.1192 0.314209H5.3804C2.75235 0.314209 0.614258 2.45242 0.614258 5.0805V12.8193C0.614258 15.4475 2.75235 17.5856 5.3804 17.5856H13.1192C15.7474 17.5856 17.8855 15.4474 17.8855 12.8193V5.0805C17.8856 2.45242 15.7474 0.314209 13.1192 0.314209ZM16.3532 12.8193C16.3532 14.6026 14.9025 16.0532 13.1193 16.0532H5.3804C3.59731 16.0533 2.14665 14.6026 2.14665 12.8193V5.0805C2.14665 3.29739 3.59731 1.84661 5.3804 1.84661H13.1192C14.9024 1.84661 16.3531 3.29739 16.3531 5.0805L16.3532 12.8193Z"/>
<path d="M9.24997 4.49964C6.79601 4.49964 4.79961 6.49606 4.79961 8.95006C4.79961 11.404 6.79601 13.4003 9.24997 13.4003C11.7039 13.4003 13.7003 11.404 13.7003 8.95006C13.7003 6.49606 11.7039 4.49964 9.24997 4.49964ZM9.24997 11.8678C7.64107 11.8678 6.332 10.5589 6.332 8.94996C6.332 7.34093 7.64097 6.03195 9.24997 6.03195C10.859 6.03195 12.1679 7.34093 12.1679 8.94996C12.1679 10.5589 10.8589 11.8678 9.24997 11.8678Z"/>
<path d="M13.8869 3.20039C13.5917 3.20039 13.3016 3.31992 13.0931 3.52935C12.8836 3.73775 12.7631 4.02788 12.7631 4.32414C12.7631 4.61948 12.8837 4.90951 13.0931 5.11894C13.3015 5.32734 13.5917 5.44789 13.8869 5.44789C14.1832 5.44789 14.4723 5.32734 14.6818 5.11894C14.8912 4.90951 15.0107 4.61938 15.0107 4.32414C15.0107 4.02788 14.8912 3.73775 14.6818 3.52935C14.4733 3.31992 14.1832 3.20039 13.8869 3.20039Z"/>
</symbol>

<symbol id="vk" viewBox="0 0 14 8" xmlns="http://www.w3.org/2000/svg">
<path d="M13.1294 6.88535C13.1139 6.85288 13.0995 6.82596 13.0861 6.80439C12.8648 6.41569 12.4419 5.9386 11.8175 5.37297L11.8044 5.36002L11.7978 5.35367L11.7911 5.34716H11.7844C11.501 5.08377 11.3216 4.90668 11.2465 4.81601C11.109 4.64329 11.0782 4.46846 11.1533 4.29132C11.2064 4.15749 11.4058 3.87484 11.7511 3.44301C11.9327 3.21415 12.0765 3.03072 12.1828 2.89253C12.9488 1.89942 13.281 1.26481 13.1791 0.988446L13.1395 0.923865C13.1129 0.884984 13.0443 0.849415 12.9337 0.816977C12.8229 0.784607 12.6812 0.779253 12.5085 0.800826L10.5957 0.81371C10.5647 0.803003 10.5205 0.804001 10.4628 0.816977C10.4053 0.829952 10.3765 0.836463 10.3765 0.836463L10.3432 0.852682L10.3167 0.872167C10.2946 0.885052 10.2702 0.907714 10.2437 0.940107C10.2172 0.972386 10.1951 1.01027 10.1774 1.05344C9.96915 1.57587 9.73238 2.06161 9.46664 2.51062C9.3028 2.77836 9.15233 3.0104 9.01492 3.20686C8.87769 3.40326 8.76256 3.54797 8.66964 3.64072C8.57659 3.73357 8.49261 3.80795 8.41719 3.86414C8.34189 3.92035 8.28441 3.9441 8.2446 3.93541C8.20471 3.92672 8.16714 3.9181 8.13157 3.90948C8.06962 3.8706 8.01979 3.81772 7.98222 3.75081C7.94448 3.68389 7.91908 3.59966 7.9058 3.4982C7.89258 3.39666 7.88477 3.30933 7.88253 3.2359C7.88046 3.16256 7.88142 3.05883 7.88591 2.92499C7.89051 2.79109 7.89258 2.70049 7.89258 2.65299C7.89258 2.48889 7.89586 2.3108 7.90245 2.11866C7.90915 1.92653 7.91457 1.77429 7.9191 1.66214C7.92362 1.54988 7.92571 1.4311 7.92571 1.30589C7.92571 1.18067 7.91789 1.08247 7.90245 1.0112C7.88719 0.940015 7.86376 0.87092 7.83289 0.803933C7.80183 0.737015 7.75638 0.68525 7.69673 0.648502C7.63697 0.611799 7.56266 0.582672 7.47424 0.561032C7.23954 0.509244 6.94068 0.481229 6.57752 0.476874C5.75398 0.468254 5.22481 0.52011 4.99013 0.632373C4.89714 0.679806 4.813 0.744614 4.73777 0.826595C4.65805 0.921619 4.64693 0.973475 4.70448 0.982004C4.97019 1.02082 5.1583 1.11366 5.26901 1.26045L5.3089 1.33824C5.33994 1.39436 5.37092 1.49371 5.40193 1.63617C5.4329 1.77863 5.45288 1.93621 5.46167 2.10884C5.48377 2.42408 5.48377 2.69393 5.46167 2.91841C5.4395 3.14299 5.41857 3.31781 5.39858 3.44303C5.3786 3.56824 5.34873 3.66971 5.3089 3.7474C5.26901 3.82512 5.24246 3.87262 5.22916 3.88986C5.21587 3.9071 5.2048 3.91797 5.19601 3.92223C5.13845 3.94374 5.0786 3.95469 5.01665 3.95469C4.9546 3.95469 4.87937 3.92443 4.79083 3.86396C4.70232 3.80348 4.61045 3.72041 4.51523 3.61461C4.42002 3.50879 4.31263 3.36091 4.19304 3.17095C4.07354 2.981 3.94954 2.75649 3.82113 2.49744L3.71489 2.30957C3.64847 2.18871 3.55774 2.01273 3.44261 1.78178C3.32741 1.55074 3.22559 1.32726 3.13708 1.11137C3.10169 1.0207 3.04854 0.951675 2.9777 0.904175L2.94446 0.884689C2.92236 0.867449 2.88688 0.849143 2.83821 0.829634C2.78948 0.810149 2.73862 0.796175 2.68544 0.787578L0.865588 0.800463C0.679622 0.800463 0.553442 0.841544 0.487003 0.923592L0.460413 0.962405C0.447129 0.984023 0.44043 1.01855 0.44043 1.06607C0.44043 1.11357 0.453713 1.17187 0.480303 1.2409C0.745968 1.84974 1.03487 2.43692 1.34702 3.00253C1.65916 3.56813 1.93041 4.02374 2.1606 4.36895C2.39084 4.71441 2.62552 5.04044 2.86464 5.34691C3.10376 5.65348 3.26205 5.84995 3.33949 5.93626C3.41702 6.02274 3.47793 6.08739 3.5222 6.13055L3.68827 6.28596C3.79454 6.38961 3.95059 6.51373 4.15649 6.65834C4.36244 6.80305 4.59044 6.9455 4.84062 7.08594C5.09083 7.22615 5.38193 7.34057 5.71406 7.42906C6.04614 7.51764 6.36936 7.55319 6.68376 7.53604H7.44758C7.60249 7.523 7.71985 7.4755 7.79962 7.39352L7.82605 7.36105C7.84382 7.33529 7.86046 7.29525 7.87581 7.24137C7.89135 7.18741 7.89907 7.12795 7.89907 7.06328C7.89454 6.87766 7.90903 6.71036 7.94216 6.56142C7.97526 6.41252 8.01299 6.30025 8.05519 6.22465C8.09737 6.14911 8.14497 6.08537 8.19794 6.03369C8.25102 5.9819 8.28885 5.95053 8.31104 5.93973C8.33309 5.92887 8.35071 5.9215 8.36399 5.91707C8.47025 5.88255 8.59532 5.91598 8.73936 6.01754C8.88329 6.11901 9.01829 6.24429 9.14456 6.39319C9.27076 6.54223 9.42239 6.70943 9.59947 6.89505C9.77667 7.08075 9.9316 7.21878 10.0644 7.30958L10.1972 7.3873C10.2859 7.43916 10.401 7.48666 10.5427 7.52982C10.6842 7.57297 10.8081 7.58377 10.9145 7.56219L12.6148 7.53634C12.7829 7.53634 12.9138 7.50918 13.0066 7.45531C13.0996 7.40134 13.1549 7.34189 13.1727 7.27721C13.1905 7.21247 13.1914 7.13902 13.1761 7.05691C13.1603 6.97499 13.1448 6.91772 13.1294 6.88535Z"/>
</symbol>

<symbol id="facebook" viewBox="0 0 8 15" xmlns="http://www.w3.org/2000/svg">
<path d="M4.98457 4.94098V3.17196C4.98457 2.68371 5.38083 2.28745 5.86908 2.28745H6.75359V0.0761719H4.98457C3.51893 0.0761719 2.33103 1.26407 2.33103 2.7297V4.94098H0.562012V7.15226H2.33103V14.2283H4.98457V7.15226H6.75359L7.6381 4.94098H4.98457Z"/>
</symbol>

<symbol id="star" viewBox="0 0 15 14" fill="none" xmlns="http://www.w3.org/2000/svg">
<path d="M7.74525 10.6054L7.5 10.4674L7.25475 10.6054L3.63071 12.6453L4.57642 8.85066L4.6535 8.54141L4.40569 8.34098L1.28779 5.81931L5.43318 5.48733L5.72674 5.46382L5.84852 5.19567L7.5 1.55921L9.15151 5.19568L9.27329 5.46382L9.56685 5.48733L13.7122 5.81931L10.5943 8.34098L10.3465 8.54141L10.4236 8.85066L11.3693 12.6453L7.74525 10.6054Z" stroke="white"/>
</symbol>

<symbol id="white-star" viewBox="0 0 15 14" xmlns="http://www.w3.org/2000/svg">
<path d="M7.5 11.0412L12.135 13.65L10.9087 8.72975L15 5.42084L9.60676 4.98892L7.5 0.350037L5.39326 4.98892L0 5.42084L4.09126 8.72975L2.865 13.65L7.5 11.0412Z" fill="white"/>
</symbol>

<symbol id="logo" viewBox="0 0 214 70" xmlns="http://www.w3.org/2000/svg">
<g filter="url(#filter0_d)">
<g clip-path="url(#clip0)">
<path d="M26.78 40.18l5.46-5.73 6.2 5.73H49.1L32.17 23.6 15.4 40.18h11.4z"/>
<path d="M42.4 13.57l-8.05 8.19 5.32 5.46 2.73-2.73 14.94 14.87a23.97 23.97 0 01-46.38-8.4 23.96 23.96 0 0147.54-4.3l7.23 7.65a30.75 30.75 0 00-8.87-25.24A30.75 30.75 0 0034.96 0c-8.31 0-16.02 3.2-21.89 9.07A30.64 30.64 0 004 30.97c0 8.32 3.2 16.03 9.07 21.9a30.75 30.75 0 0021.9 9.07c8.25 0 16.03-3.2 21.9-9.08a30.27 30.27 0 007.63-12.61c.28-.82.48-1.71.69-2.53L58.9 31.1l-16.5-17.53z"/>
</g>
<path d="M91.49 19.9h4.55l-2.48 12.49h7.68l-.73 3.61H88.27l3.22-16.1zm14.04 0h4.55L106.86 36h-4.55l3.22-16.1zm11.63 3.52l-.71 3.54h7.1l-.7 3.52h-7.1l-1.1 5.52h-4.55l3.22-16.1h12.6l-.7 3.52h-8.06zm14.69 0l-.53 2.71h7.15l-.66 3.4h-7.18l-.57 2.95h8.44l-.74 3.52h-12.9l3.22-16.1h12.6l-.71 3.52h-8.12zm14.37.1h-4.94l.73-3.62h14.42l-.73 3.61h-4.92L148.27 36h-4.56l2.51-12.49zm17.16 12.8a9.5 9.5 0 01-4.25-.9 6.7 6.7 0 01-2.79-2.5 7.01 7.01 0 01-.96-3.68c0-1.84.42-3.5 1.26-4.97a9.07 9.07 0 013.57-3.45 10.8 10.8 0 015.22-1.24c1.62 0 3.03.3 4.23.9a6.52 6.52 0 012.78 2.5c.66 1.08 1 2.3 1 3.68 0 1.84-.44 3.5-1.3 4.97a8.89 8.89 0 01-3.56 3.45 10.68 10.68 0 01-5.2 1.24zm.4-3.77c1 0 1.9-.25 2.66-.76a5.04 5.04 0 001.77-2.02c.41-.86.62-1.8.62-2.83 0-1.1-.34-1.96-1.01-2.6a3.76 3.76 0 00-2.78-.99 4.73 4.73 0 00-4.44 2.8 6.28 6.28 0 00-.62 2.81c0 1.1.33 1.96.99 2.62a3.9 3.9 0 002.8.97zm18.2 3.77c-1.4 0-2.6-.23-3.61-.69a5.27 5.27 0 01-3.13-5.1c0-.5.06-1.06.19-1.7l1.79-8.93h4.55L180 28.76c-.09.45-.14.88-.14 1.26 0 1.69.9 2.53 2.67 2.53.97 0 1.73-.3 2.28-.87.57-.6.99-1.58 1.26-2.93l1.78-8.85h4.48l-1.82 9.13c-.98 4.86-3.82 7.3-8.53 7.3zm26.82-11.3a6.3 6.3 0 01-1.17 3.83 6.69 6.69 0 01-3.3 2.32l2.75 4.83h-4.77l-2.39-4.28h-2.3l-.85 4.28h-4.55l3.22-16.1h6.88c2.05 0 3.64.45 4.78 1.36 1.13.9 1.7 2.16 1.7 3.77zm-4.6.45c0-.66-.22-1.15-.67-1.48a3.03 3.03 0 00-1.86-.5h-2.4l-.96 4.71h2.72c1 0 1.8-.23 2.34-.71.56-.48.83-1.15.83-2.02zM91.3 51.18c-.55 0-1.06-.12-1.51-.37a2.78 2.78 0 01-1.43-2.48 2.72 2.72 0 011.43-2.47c.45-.25.96-.38 1.51-.38.56 0 1.05.13 1.5.37a2.8 2.8 0 011.44 2.48c0 .54-.13 1.03-.39 1.47-.25.43-.6.77-1.05 1.01-.45.25-.94.37-1.5.37zm0-.53c.44 0 .84-.1 1.2-.3.36-.2.64-.47.84-.83.2-.35.3-.75.3-1.19 0-.43-.1-.83-.3-1.18-.2-.36-.48-.64-.84-.83-.36-.2-.76-.3-1.2-.3-.44 0-.84.1-1.2.3-.36.2-.65.47-.86.83-.2.35-.3.75-.3 1.18 0 .44.1.84.3 1.2a2.27 2.27 0 002.06 1.12zm6.38-3.76c.4 0 .75.1 1.07.27.32.18.57.43.76.76.18.32.27.7.27 1.1 0 .43-.1.8-.27 1.13-.19.32-.44.58-.76.76-.31.17-.67.26-1.07.26-.34 0-.65-.07-.93-.2a1.8 1.8 0 01-.67-.63v2.34h-.57v-5.76h.55v.84c.17-.28.4-.5.67-.64a2 2 0 01.95-.23zm-.04 3.78c.3 0 .56-.07.8-.2.24-.14.43-.33.56-.59.14-.25.2-.53.2-.85 0-.32-.06-.6-.2-.85a1.44 1.44 0 00-.56-.58c-.24-.14-.5-.21-.8-.21-.3 0-.57.07-.8.2-.24.15-.43.34-.57.6-.13.24-.2.52-.2.84 0 .32.07.6.2.85.14.26.33.45.56.59.24.13.51.2.81.2zm6.33-3.24h-2.4v3.7H101v-4.2h2.97v.5zm2.27-.54c.55 0 .97.14 1.27.42.29.27.44.68.44 1.21v2.61h-.55v-.65a1.3 1.3 0 01-.57.5c-.24.13-.53.2-.88.2-.47 0-.84-.12-1.12-.34a1.08 1.08 0 01-.41-.9c0-.35.13-.64.38-.86.26-.21.68-.32 1.24-.32h1.34v-.26c0-.36-.1-.64-.3-.82-.2-.2-.5-.3-.9-.3a2.2 2.2 0 00-1.4.5l-.25-.42c.21-.18.47-.32.77-.42.3-.1.61-.15.94-.15zm-.2 3.83c.32 0 .6-.07.83-.21.23-.15.4-.36.5-.64v-.69h-1.31c-.72 0-1.08.25-1.08.75 0 .25.1.44.28.59.18.14.45.2.78.2zm3.42-3.8h.57v1.87h2.64v-1.87h.57v4.21h-.56v-1.85h-2.65v1.85h-.57v-4.2zm5.4 0h.56v3.35l2.81-3.35h.5v4.21h-.56V47.8l-2.8 3.34h-.51v-4.2zm7.47 2.02c.3.07.53.19.69.36.16.17.24.38.24.62 0 .25-.08.47-.25.66-.17.2-.4.34-.68.45a3.2 3.2 0 01-1.85.02c-.3-.09-.55-.22-.77-.39l.2-.42a2.59 2.59 0 001.45.46c.38 0 .7-.08.94-.22.25-.15.38-.35.38-.6 0-.23-.1-.4-.3-.52-.2-.13-.48-.2-.84-.2h-.72v-.41h.7c.3 0 .56-.06.75-.18.2-.12.29-.28.29-.49 0-.22-.11-.4-.33-.52-.21-.13-.5-.2-.84-.2-.45 0-.9.12-1.34.35l-.16-.44c.5-.26 1.02-.4 1.56-.4.32 0 .6.05.86.15.26.1.47.22.6.4.16.16.23.36.23.58 0 .22-.07.4-.22.57-.14.17-.34.3-.6.37zM126 46.9c.55 0 .97.14 1.26.42.3.27.44.68.44 1.21v2.61h-.54v-.65a1.3 1.3 0 01-.57.5c-.24.13-.54.2-.88.2-.47 0-.84-.12-1.12-.34a1.09 1.09 0 01-.41-.9c0-.35.12-.64.38-.86.26-.21.67-.32 1.24-.32h1.34v-.26c0-.36-.1-.64-.3-.82-.21-.2-.5-.3-.9-.3a2.2 2.2 0 00-1.4.5l-.25-.42c.21-.18.47-.32.77-.42.3-.1.61-.15.94-.15zm-.2 3.83c.32 0 .6-.07.82-.21.23-.15.4-.36.52-.64v-.69h-1.32c-.72 0-1.08.25-1.08.75 0 .25.09.44.28.59.18.14.44.2.78.2zm7.8-.08v1.55h-.54v-1.06h-3.84v-4.2h.56v3.7h2.57v-3.7h.57v3.7h.68zm1.09-3.72h.56v3.35l2.81-3.35h.5v4.21H138V47.8l-2.8 3.34h-.51v-4.2zm8.74 0v4.21h-.53v-1.39h-1.47l-.98 1.4h-.62l1.05-1.48c-.32-.09-.57-.24-.75-.46-.18-.22-.26-.5-.26-.84 0-.46.16-.82.47-1.07a2.1 2.1 0 011.32-.37h1.77zm-2.99 1.46c0 .62.4.94 1.2.94h1.27v-1.9h-1.24c-.82 0-1.23.33-1.23.96zm10.47-1.46v4.21h-.56v-3.7h-2.64v3.7h-.57v-4.2h3.77zm3.35 4.25a2.05 2.05 0 01-1.86-1.04c-.19-.32-.28-.7-.28-1.1 0-.41.1-.78.28-1.1.19-.33.44-.58.77-.77.32-.18.69-.27 1.1-.27.4 0 .77.1 1.1.27.32.19.57.44.75.76.19.33.28.7.28 1.1 0 .42-.1.79-.28 1.11-.18.33-.43.58-.76.77-.32.18-.69.27-1.1.27zm0-.5c.3 0 .57-.07.8-.2.25-.14.43-.33.56-.59.14-.25.2-.53.2-.85 0-.32-.06-.6-.2-.86a1.39 1.39 0 00-.56-.57c-.23-.14-.5-.21-.8-.21-.3 0-.56.07-.8.2-.24.14-.42.33-.56.58-.14.25-.2.54-.2.86 0 .32.06.6.2.85.14.26.32.45.56.59.24.13.5.2.8.2zm5.84.46l-1.34-1.76-1.34 1.76h-.64l1.66-2.16-1.58-2.05h.64l1.26 1.65 1.27-1.65h.62l-1.58 2.05 1.68 2.16h-.65zm3.16.04a2.05 2.05 0 01-1.86-1.04c-.19-.32-.28-.7-.28-1.1 0-.41.1-.78.28-1.1.19-.33.44-.58.77-.77.32-.18.69-.27 1.1-.27.4 0 .77.1 1.1.27.32.19.57.44.75.76.19.33.28.7.28 1.1 0 .42-.1.79-.28 1.11-.18.33-.43.58-.76.77-.32.18-.69.27-1.1.27zm0-.5c.3 0 .57-.07.8-.2.25-.14.43-.33.56-.59.14-.25.2-.53.2-.85 0-.32-.06-.6-.2-.86a1.39 1.39 0 00-.56-.57c-.23-.14-.5-.21-.8-.21-.3 0-.56.07-.8.2-.24.14-.42.33-.56.58-.14.25-.2.54-.2.86 0 .32.06.6.2.85.14.26.32.45.56.59.24.13.5.2.8.2zm7.44-.03v1.5h-.54v-1h-3.77v1h-.53v-1.5h.23c.29-.02.48-.23.58-.63.1-.4.17-.96.2-1.68l.06-1.4h3.1v3.7h.66zm-3.3-2.28c-.03.6-.08 1.1-.15 1.48-.08.39-.21.65-.4.8h2.62v-3.21h-2.02l-.05.93zm6.14 2.81a2.05 2.05 0 01-1.86-1.04c-.2-.32-.29-.7-.29-1.1 0-.41.1-.78.28-1.1.2-.33.45-.58.77-.77.33-.18.7-.27 1.1-.27.4 0 .77.1 1.1.27.32.19.57.44.75.76.2.33.28.7.28 1.1 0 .42-.09.79-.28 1.11-.18.33-.43.58-.76.77-.32.18-.69.27-1.1.27zm0-.5c.3 0 .56-.07.8-.2.24-.14.42-.33.56-.59.13-.25.2-.53.2-.85 0-.32-.07-.6-.2-.86a1.54 1.54 0 00-1.36-.78c-.3 0-.57.07-.81.2-.23.14-.42.33-.56.58-.13.25-.2.54-.2.86 0 .32.07.6.2.85.14.26.33.45.56.59.24.13.51.2.8.2zm6.03-1.71c.57.13.85.47.85 1.03 0 .37-.13.65-.4.85-.28.2-.68.3-1.22.3h-1.91v-4.22h1.85c.48 0 .86.1 1.13.28.27.2.41.46.41.8 0 .23-.06.43-.2.6-.11.16-.29.28-.51.36zm-2.13-.16h1.26c.33 0 .58-.06.75-.19.17-.12.26-.3.26-.53a.6.6 0 00-.26-.53 1.3 1.3 0 00-.75-.18h-1.26v1.43zm1.34 1.88c.36 0 .63-.05.81-.17.18-.12.27-.3.27-.55 0-.25-.08-.44-.24-.56-.17-.12-.43-.18-.79-.18h-1.39v1.46h1.34zm7.75-1.72c.57.13.85.47.85 1.03 0 .37-.13.65-.4.85-.27.2-.68.3-1.22.3h-1.91v-4.22h1.86c.47 0 .85.1 1.12.28.27.2.41.46.41.8 0 .23-.06.43-.2.6-.11.16-.29.28-.51.36zm-2.13-.16h1.26c.33 0 .58-.06.75-.19.18-.12.26-.3.26-.53a.6.6 0 00-.26-.53 1.3 1.3 0 00-.75-.18h-1.26v1.43zm1.34 1.88c.36 0 .63-.05.81-.17.19-.12.27-.3.27-.55 0-.25-.08-.44-.24-.56-.17-.12-.43-.18-.79-.18h-1.39v1.46h1.34zm8.05-3.25h-2.41v3.7h-.57v-4.2h2.98v.5zm2.36 3.74a2.03 2.03 0 01-1.86-1.04c-.2-.32-.29-.7-.29-1.1 0-.41.1-.78.28-1.1.19-.33.45-.58.77-.77a2.2 2.2 0 011.1-.27c.4 0 .77.1 1.1.27.32.19.57.44.75.76.19.33.28.7.28 1.1 0 .42-.09.79-.28 1.11a2 2 0 01-.76.77c-.32.18-.69.27-1.1.27zm0-.5c.3 0 .56-.07.8-.2.24-.14.42-.33.56-.59.13-.25.2-.53.2-.85 0-.32-.07-.6-.2-.86a1.4 1.4 0 00-.56-.57c-.24-.14-.5-.21-.8-.21-.3 0-.57.07-.81.2-.24.14-.42.33-.56.58-.13.25-.2.54-.2.86 0 .32.07.6.2.85.14.26.32.45.56.59.24.13.5.2.8.2zm5.52-3.78c.39 0 .75.1 1.07.27.32.18.57.43.75.76.18.32.27.7.27 1.1 0 .43-.09.8-.27 1.13-.18.32-.43.58-.75.76-.32.17-.67.26-1.07.26-.35 0-.66-.07-.93-.2a1.8 1.8 0 01-.67-.63v2.34h-.57v-5.76h.54v.84c.17-.28.4-.5.67-.64a2 2 0 01.96-.23zm-.04 3.78c.29 0 .56-.07.8-.2.24-.14.42-.33.56-.59.13-.25.2-.53.2-.85 0-.32-.07-.6-.2-.85a1.44 1.44 0 00-.56-.58c-.24-.14-.51-.21-.8-.21-.3 0-.57.07-.81.2a1.5 1.5 0 00-.56.6c-.14.24-.2.52-.2.84 0 .32.06.6.2.85.14.26.32.45.56.59.24.13.5.2.8.2zm5.12-2.26c.53 0 .93.13 1.2.35.29.23.42.56.42 1 0 .44-.15.79-.44 1.03-.3.24-.73.36-1.28.35h-1.67v-4.22h.57v1.48l1.2.01zm2.33-1.49h.57v4.21h-.57v-4.2zm-2.47 3.79c.4 0 .69-.07.88-.23.2-.17.3-.4.3-.72 0-.31-.1-.54-.29-.7a1.5 1.5 0 00-.89-.22l-1.06-.02v1.87l1.06.02z"/></g><defs><clipPath id="clip0"><path fill="#fff" transform="translate(4)" d="M0 0h61.87v61.87H0z"/>
</clipPath>
<filter id="filter0_d" x="0" y="0" width="213.65" height="69.87" filterUnits="userSpaceOnUse" color-interpolation-filters="sRGB">
<feFlood flood-opacity="0" result="BackgroundImageFix"/>
<feColorMatrix in="SourceAlpha" values="0 0 0 0 0 0 0 0 0 0 0 0 0 0 0 0 0 0 127 0"/>
<feOffset dy="4"/><feGaussianBlur stdDeviation="2"/>
<feColorMatrix values="0 0 0 0 0 0 0 0 0 0 0 0 0 0 0 0 0 0 0.25 0"/>
<feBlend in2="BackgroundImageFix" result="effect1_dropShadow"/>
<feBlend in="SourceGraphic" in2="effect1_dropShadow" result="shape"/>
</filter></defs>
</symbol>

</svg>
